<svg xmlns="http://www.w3.org/2000/svg" viewBox="0 0 900 560" role="img" aria-label="Hair fall disease classification research visual">
  <rect width="900" height="560" fill="#f7f4ee"/>
  <rect x="56" y="56" width="788" height="448" rx="18" fill="#fff" stroke="#ddd6c9"/>
  <g transform="translate(130 120)">
    <circle cx="135" cy="135" r="112" fill="#e8f0ec"/>
    <path d="M55 130c18-74 68-114 143-93 48 14 75 51 77 102-32-38-61-55-101-52-55 3-94 30-119 43z" fill="#14211f"/>
    <path d="M86 166c28 60 120 66 158 0" fill="none" stroke="#0f7a63" stroke-width="12" stroke-linecap="round"/>
  </g>
  <g transform="translate(465 125)" fill="none" stroke-width="12" stroke-linecap="round">
    <path d="M0 265h285" stroke="#ddd6c9"/>
    <path d="M0 215l58-52 60 36 66-91 101-56" stroke="#0f7a63"/>
    <path d="M0 245l58-32 60 10 66-62 101-22" stroke="#cc5b46"/>
    <g fill="#b68b2d" stroke="none">
      <circle cx="58" cy="163" r="14"/>
      <circle cx="184" cy="108" r="14"/>
      <circle cx="285" cy="52" r="14"/>
    </g>
  </g>
  <text x="92" y="450" font-family="Arial, sans-serif" font-size="34" font-weight="700" fill="#14211f">Hair Disease Classification</text>
  <text x="92" y="492" font-family="Arial, sans-serif" font-size="23" fill="#62706b">Ensemble deep learning model</text>
</svg>
